<svg xmlns="http://www.w3.org/2000/svg" viewBox="0 0 143.43 36.92"><defs><style>.cls-1{fill:#009fe3;}.cls-2{fill:#484444;}.cls-3{fill:#898687;}</style></defs><g id="Calque_2" data-name="Calque 2"><g id="Layer_1" data-name="Layer 1"><path class="cls-1" d="M0,18.56v-.1C0,8.31,8,0,19,0S37.94,8.21,37.94,18.36v.1c0,10.15-8,18.46-19,18.46S0,28.71,0,18.56Zm29.73,0v-.1c0-6.12-4.49-11.22-10.81-11.22s-10.71,5-10.71,11.12v.1c0,6.12,4.49,11.22,10.81,11.22S29.73,24.68,29.73,18.56Z"/><path class="cls-2" d="M40.24,18.91v-.1A18,18,0,0,1,58.59.71c6.3,0,10.1,1.7,13.75,4.8l-4.85,5.85c-2.7-2.25-5.1-3.55-9.15-3.55-5.6,0-10.05,5-10.05,10.9v.1c0,6.4,4.4,11.1,10.6,11.1a12.29,12.29,0,0,0,7.25-2.1v-5H58.39V16.16h15.2v15.2a22.72,22.72,0,0,1-15,5.55C47.74,36.91,40.24,29.26,40.24,18.91Z"/><path class="cls-2" d="M75.59,31.21l4.55-5.45C83.29,28.36,86.59,30,90.59,30c3.15,0,5-1.25,5-3.3v-.1c0-1.95-1.2-2.95-7-4.45-7-1.8-11.6-3.75-11.6-10.7v-.1C77,5,82.09.81,89.24.81a20.26,20.26,0,0,1,13,4.45l-4,5.8c-3.1-2.15-6.15-3.45-9.1-3.45s-4.5,1.35-4.5,3.05v.1c0,2.3,1.5,3.05,7.55,4.6,7.1,1.85,11.1,4.4,11.1,10.5V26c0,6.95-5.3,10.85-12.85,10.85A22.27,22.27,0,0,1,75.59,31.21Z"/><path class="cls-2" d="M107,1.31h7.7v28h17.45v7H107Z"/><path class="cls-3" d="M139.38,31.14h0a4,4,0,0,1-4.09-4.08,4,4,0,0,1,1.35-3.12l1.2,1.12a2.63,2.63,0,0,0-1,2,2.37,2.37,0,0,0,2.49,2.27h0A2.37,2.37,0,0,0,141.86,27a2.76,2.76,0,0,0-1-2L142,23.89a4.1,4.1,0,0,1-2.58,7.25Z"/><path class="cls-3" d="M141,23.06h0c-1.69,0-2.52-1.32-2.52-3.23a6.65,6.65,0,0,1,.32-2.11h-.19c-1.11,0-1.7.68-1.7,1.94a5.38,5.38,0,0,0,.49,2.24l-1.41.48a6.63,6.63,0,0,1-.64-2.95,3.48,3.48,0,0,1,.88-2.6,3.22,3.22,0,0,1,2.41-.84h4.64v1.75h-1a3.15,3.15,0,0,1,1.14,2.55A2.5,2.5,0,0,1,141,23.06Zm-.56-5.37h-.54a4.94,4.94,0,0,0-.31,1.78c0,1.16.49,1.84,1.3,1.84h0c.76,0,1.19-.67,1.19-1.53C142.11,18.6,141.43,17.69,140.44,17.69Z"/><path class="cls-3" d="M139.38,36.53h0a2,2,0,0,1-2-2.08,2,2,0,0,1,1.95-2.08h0a2.08,2.08,0,0,1,0,4.16Zm0-2.88h0a.82.82,0,0,0-.86.81.79.79,0,0,0,.84.79h0a.82.82,0,0,0,.85-.8A.81.81,0,0,0,139.38,33.65Z"/></g></g></svg>